#N canvas 242 284 986 951 10;
#X obj 42 29 inlet;
#X obj 84 38 inlet;
#X obj 88 189 sel 0;
#X obj 57 225 f;
#X obj 95 226 0;
#X obj 56 263 pack f f;
#X floatatom 174 334 5 0 0 0 - - - 0;
#X obj 168 299 unpack f f;
#X floatatom 232 328 5 0 0 0 - - - 0;
#X msg 262 299 100;
#X msg 132 38 0;
#X msg 181 37 1;
#X obj 56 321 outlet;
#X obj 233 117 spigot 1;
#X obj 316 65 r m_note_all_off-\$1;
#X connect 0 0 3 1;
#X connect 1 0 13 0;
#X connect 2 0 3 0;
#X connect 2 0 4 0;
#X connect 3 0 5 0;
#X connect 4 0 5 1;
#X connect 5 0 7 0;
#X connect 5 0 12 0;
#X connect 7 0 6 0;
#X connect 7 1 8 0;
#X connect 9 0 8 0;
#X connect 10 0 2 0;
#X connect 11 0 2 0;
#X connect 13 0 2 0;
#X connect 14 0 13 1;
#X coords 0 0 0.5 0.5 0 0 0;
