#N canvas 1062 212 986 951 10;
#X obj 44 38 inlet;
#X obj 43 106 poly 6 1;
#X obj 255 40 inlet;
#X obj 44 162 pack f f f;
#X obj 42 206 route 1 2 3 4 5 6;
#X floatatom 228 355 5 0 0 0 - - - 0;
#X obj 222 320 unpack f f;
#X floatatom 286 349 5 0 0 0 - - - 0;
#X msg 316 320 100;
#X obj 77 273 six_voices \$1;
#X obj 204 104 alloff \$1;
#X connect 0 0 1 0;
#X connect 0 0 10 0;
#X connect 1 0 3 0;
#X connect 1 1 3 1;
#X connect 1 2 3 2;
#X connect 2 0 1 1;
#X connect 2 0 10 1;
#X connect 3 0 4 0;
#X connect 4 0 9 0;
#X connect 4 1 9 1;
#X connect 4 2 9 2;
#X connect 4 3 9 3;
#X connect 4 4 9 4;
#X connect 4 5 9 5;
#X connect 6 0 5 0;
#X connect 6 1 7 0;
#X connect 8 0 7 0;
#X connect 10 0 6 0;
#X connect 10 0 9 6;
#X coords 0 0 0.5 0.5 0 0 0;
