#N canvas 352 240 1137 833 10;
#X obj 19 126 voice 1 \$1;
#X obj 102 126 voice 2 \$1;
#X obj 185 125 voice 3 \$1;
#X obj 266 126 voice 4 \$1;
#X obj 349 127 voice 5 \$1;
#X obj 427 127 voice 6 \$1;
#X obj 76 46 inlet;
#X obj 127 46 inlet;
#X obj 179 46 inlet;
#X obj 231 45 inlet;
#X obj 283 45 inlet;
#X obj 430 46 inlet;
#X obj 24 46 inlet;
#X connect 6 0 1 0;
#X connect 7 0 2 0;
#X connect 8 0 3 0;
#X connect 9 0 4 0;
#X connect 10 0 5 0;
#X connect 12 0 0 0;
